/* XPM */
static char *f1dab74ed7e2495af9d86d86031cc8403WLpUyz2ZMJtYrIS[] = {
/* columns rows colors chars-per-pixel */
"64 64 9 1 ",
"  c None",
". c #4D2323",
"X c #8E2B2B",
"o c #823030",
"O c #C41818",
"+ c #D93434",
"@ c #867F4C",
"# c #E8D23B",
"$ c white",
/* pixels */
"                                      .                         ",
"                                      ..            .           ",
"                                      .@.   ....   ..           ",
"                                      .@#...OOOO...#.           ",
"                             .....     .@#@#.OOOO.#.            ",
"                           ..ooooo.......@@@.OOOOO...           ",
"                          .ooooooo.Xo.oOO...oOOOOO.+.           ",
"                         .ooooOOOOO.oo.ooO...oOOOo..            ",
"                         .oooOOOOOOoooo..O....ooo..             ",
"                        .oooOOOOOOOoooooooo.$....$.             ",
"                        .oooOOOOOOoooooooooOOO.o..              ",
"                       .oooOOOOOOooooo.oo.oOO.oOo.              ",
"                       .oooOOooooo.oooo...o..oOOO.              ",
"                       .oooooooo..ooOOooo.ooo.....              ",
"                      .oooooo...oooOOOOooo.o.OOOO.              ",
"                     .oooOOO.oooooOOOOOOoOo.oOooo.              ",
"                    .oooOOO.ooooooOOOOOOOO. .oo@o.              ",
"                    .oooOOO.ooo.oooOOOOoOO. .@@#.               ",
"                   .ooooOO.ooooo..ooooooo.o. .#.                ",
"                  .oooooo..ooooooo.......oo. .#.                ",
"                 .ooooOO.  .ooooooooooo.ooO.  .                 ",
"                 .oooOOO.  .ooooOOooOOO.ooO.                    ",
"                .oooOOOO.   .oooOooOOOoO.oOO.                   ",
"                .oooOOO.    .oooOoOOooOO.oOo.                   ",
"                .oooOOO.     .oooOOOOoOO.oooo.                  ",
"               .oooOOO.       .ooooOOooO.oooOO.                 ",
"               .oooOO.         .oooOOooOO.ooOOO.                ",
"               .oooO.          .ooOOOOoOO.oooOOO.               ",
"               .ooo.           .oooOOOOOO..oooOOO.              ",
"               .ooo.           .oooooOOOO. .oooOOO.             ",
"              .oooOO.         .ooooOOOOOoo. .oooOO.             ",
"              .oooOOO.       .oooooOOOOooo.  .ooOOO.            ",
"              .ooooOOO.      .ooOooOOO.ooo.   .oOOO.            ",
"              .ooooOOO.     .ooOOOoOO.oooO.  .ooOOOO.           ",
"             .ooooOO.OO.    .ooOOOOOO.ooOO. .oooOOOO.           ",
"             .ooooOO..O.    .oOOOoOO.ooOOO. .ooooOoo.           ",
"             ..oooO. .O.   .ooOOOoO..ooOOOO.oo.ooooo.           ",
"             .o.oOO.  ..   .ooOOoOO...ooOOO.o...oo.o.           ",
"             .o..OO..  .   .oOOOoO.o..ooOOO..  .oO.o.           ",
"              .o.O.o.     .ooOOOOO.o. .ooOO.   .oO..            ",
"              .o.O.o.     .ooOOOO.oo. .ooOO.   .oO.             ",
"               ..O..      .oOOOO.oo+.  .oOOO. .oo.              ",
"                .O.      ..oOOO.oo++.  .ooOO. .o.               ",
"                .O.    ..oooOOO.o+++.  .oooo. ..                ",
"                 ..   .oooooOO.oo+++. .ooooo.                   ",
"                  .  .oooooooo.o+++. .oooooo.                   ",
"     ......         .oooooooo..o+++. .ooooO.                    ",
"    .oooooo..      .ooooooo.. .o+++..ooooOO.                    ",
"   .o+++++ooo..   .ooooOOO.  .oo++. .ooooOO.                    ",
"  .o++....++ooo.. .ooOOOO.  .oo+++. .oooOOO.                    ",
"  .++.    ..+oooo.ooOOOO. ..ooo++.   .oooOO.                    ",
"  .+.       ..ooo.ooOOO...oo++++.    .oooOO.                    ",
"  .+          ..o.oOOO.ooo++++..      .oooO.                    ",
"  .+            .ooOO.+++++...        .oooO.                    ",
"  .+            .ooo.......            .ooO.                    ",
"  .+            .ooo.                  .oOOO.                   ",
"   .+           .ooOO.                 .oOOOO..                 ",
"    .+          .ooOOO.                .oooOOOO..               ",
"     .+        .ooOOOO.                .oooOO.OOO.              ",
"      .+       .ooOOOOO..              ..oooOO..OO.             ",
"               .ooOO.OOOO.               ..ooo.....             ",
"               .oooO..OOOO.                ....                 ",
"               .oooo. .....                                     ",
"                .....                                           "
};
