/* XPM */
static char *_509d50b89d24051d4bdf08be282cfa5TcexIPjFA03RyNOQ[] = {
/* columns rows colors chars-per-pixel */
"64 64 170 2 ",
"   c None",
".  c #040404",
"X  c #0B0404",
"o  c #0B0B0B",
"O  c #140202",
"+  c #1A0101",
"@  c #170C0C",
"#  c #1B0D0D",
"$  c #141414",
"%  c #1B1B1B",
"&  c #240404",
"*  c #2A0303",
"=  c #300303",
"-  c #380101",
";  c #241717",
":  c #201F1F",
">  c #212121",
",  c #2D2424",
"<  c #2B2B2B",
"1  c #332C2C",
"2  c #333333",
"3  c #3E3E3E",
"4  c #460202",
"5  c #5D0303",
"6  c #650202",
"7  c #6B0202",
"8  c #6D0C0C",
"9  c #760303",
"0  c #7E0606",
"q  c #760C0C",
"w  c #7B0C0C",
"e  c #741414",
"r  c #7B1212",
"t  c #751C1C",
"y  c #7D1B1B",
"u  c #742121",
"i  c #7A2222",
"p  c #434242",
"a  c #4B4A4A",
"s  c #504E4E",
"d  c #545252",
"f  c #5D5C5C",
"g  c #656464",
"h  c #696767",
"j  c #6C6B6B",
"k  c #747474",
"l  c #7C7B7B",
"z  c #840303",
"x  c #8C0202",
"c  c #830A0A",
"v  c #8B0C0C",
"b  c #940202",
"n  c #9C0101",
"m  c #940B0B",
"M  c #9C0D0D",
"N  c #831313",
"B  c #8C1414",
"V  c #831B1B",
"C  c #8B1B1B",
"Z  c #941414",
"A  c #9A1414",
"S  c #931C1C",
"D  c #9B1B1B",
"F  c #A40202",
"G  c #AC0101",
"H  c #A30B0B",
"J  c #AA0C0C",
"K  c #B30101",
"L  c #BB0101",
"P  c #A51212",
"I  c #AA1414",
"U  c #AB1C1C",
"Y  c #832323",
"T  c #8B2323",
"R  c #872A2A",
"E  c #8C2B2B",
"W  c #942424",
"Q  c #9B2424",
"!  c #972828",
"~  c #9D2B2B",
"^  c #9F3333",
"/  c #A42323",
"(  c #AD2424",
")  c #A32728",
"_  c #A12A2A",
"`  c #AF2B2B",
"'  c #B22D2D",
"]  c #A43333",
"[  c #AB3434",
"{  c #A53A3A",
"}  c #AA3B3B",
"|  c #B23535",
" . c #B53C3C",
".. c #C30101",
"X. c #C80101",
"o. c #AC4444",
"O. c #B44444",
"+. c #BB4545",
"@. c #B64C4C",
"#. c #BB4B4B",
"$. c #B65050",
"%. c #BD5252",
"&. c #BF5A5A",
"*. c #C24C4C",
"=. c #C55454",
"-. c #C35A5A",
";. c #C05A5A",
":. c #C55A5A",
">. c #C35C5C",
",. c #C15E5E",
"<. c #C45C5C",
"1. c #C25B5B",
"2. c #C36262",
"3. c #C66161",
"4. c #C46060",
"5. c #C56666",
"6. c #C56363",
"7. c #C86767",
"8. c #C76868",
"9. c #C56A6A",
"0. c #C66A6A",
"q. c #C76C6C",
"w. c #C76E6E",
"e. c #C96B6B",
"r. c #CA6E6E",
"t. c #C77070",
"y. c #C77575",
"u. c #C97272",
"i. c #CA7474",
"p. c #CC7474",
"a. c #C97171",
"s. c #CA7979",
"d. c #CC7B7B",
"f. c #CB7F7F",
"g. c #CA7C7C",
"h. c #CF7F7F",
"j. c #838383",
"k. c #888686",
"l. c #8A8A8A",
"z. c #908D8D",
"x. c #959595",
"c. c #9D9D9D",
"v. c #A4A4A4",
"b. c #A8A7A7",
"n. c #ACACAC",
"m. c #B0AEAE",
"M. c #B3B3B3",
"N. c #B8B6B6",
"B. c #BBBBBB",
"V. c #CF8080",
"C. c #CE8383",
"Z. c #CD8282",
"A. c #CD8585",
"S. c #CF8D8D",
"D. c #D08686",
"F. c #D18E8E",
"G. c #D19393",
"H. c #D29393",
"J. c #D19090",
"K. c #D39797",
"L. c #D19494",
"P. c #C4C4C4",
"I. c #CCCCCC",
"U. c #D0CFCF",
"Y. c #D3D3D3",
"T. c #DCDCDC",
"R. c #E4E4E4",
"E. c #ECECEC",
"W. c #F2F2F2",
"Q. c #FAFAFA",
/* pixels */
"                                                                                                                                ",
"                                                                                                                                ",
"                                                                                                                                ",
"                                                      C T Q ~ ~ Q Q S C q 9                                                     ",
"                                              W _ | +.*.*.%.%.%.%.%.O.O. .' D c 7 6                                             ",
"                                        Q ~  .*.,.q.y.g.g.g.s.y.w.6.2.&.&.@.{ ^ Q D c 6                                         ",
"                                    D ] +.:.i.C.J.J.L.S.A.s.i.0.2.2.,.-.&.$.o.o.{ ^ ~ S v 6                                     ",
"                                  ~ +.<.p.F.K.K.H.C.p.0.4.-.%.#.#.O.+.O.O.} } { { { ] ~ T Z 0 6                                 ",
"                              Q | =.y.S.K.H.D.p.7.:.%.+. .| [ ' ` ( ( ( ( ) Q ) ~ ~ ~ ~ ~ ! C v 7 7                             ",
"                            Q +.4.C.H.F.C.r.:.=.+.| ' ( ( U I I P P I P H A Z A A D D Q Q Q W C N 0 6                           ",
"                          _ +.0.A.F.h.e.-.+. .' ( U I J J J G F F F F G F b n b m M m Z Z S S W C N z 6                         ",
"                        _ #.q.C.h.r.:.*. .' ( I J J J G G G G G G G G G H n n n n b b m m v Z Z C B N 0 6                       ",
"                      ~ +.0.d.u.<.%. .' ( I J J K G G G G G K G K G K K F F n n n n b b b m v v v B N w c 6                     ",
"                    W +.6.i.7.-.+.| ( U J J G G G K K K K K K K K K K K F F F F F n n n b b x x v v N N w 0 8                   ",
"                  S  .-.6.,.%. .' U I J J G G G K K K K K L K L L L K K G G G G F F F n n n b b x v c c r w 9 8                 ",
"                B ] %.,.-.#. .( U J H G G K K K K K K L L L L L L L L L K G G G G F F F n n n b x x x c c w q 8                 ",
"                Q O.&.&.O.| ( P H J G G G K K K L L L L ..L ....L ....L K K K K G G G F F F n n b x z z 0 0 e q 8               ",
"              C } @.#.O.| / P H H G G G K K K L L L L ................L K L K K K K G G F F n n n b x z z 0 0 r q e             ",
"              ~ O.@.O.[ / P H F F G G K K K L L L ........X.X...X.X...L L L L L K K K G G F F n n b b x z 0 0 q r e             ",
"            V ] O.o.[ / P M H F G G G K K L L ......X...X.X...L K L ..L ....L L L L K G G G F F n n b x z z 0 q r e e           ",
"            W } o.[ / P M n F F G G K K L L ......X.X.L z - O X . X O & 6 G ..L L L K K G G G F n n b b x z 0 0 r r e           ",
"          N _ { [ ) D M H F F F G K K K L L ........7 O . o o o o o o o X o 4 G L L L K K K G F F n n b x z 0 0 r y t t         ",
"          V ] ] _ D Z n n F G G G K K L L ....X.G & o o @ o o o o @ o o o o . O x L L L K K G F F n n b x z 0 0 w y y t         ",
"          T ~ ~ D A m n n F F G G K L L L ....F @ o o o o > f z.c.x.g < o o o o . 9 L L K K K G F F n b b x z 0 q V Y t         ",
"        q W ~ Q Z m m n F F G G K K L L L ..K @ o o o > c.R.W.E.E.E.E.E.M.2 o o o X x L L K K G F F n n b x z 0 N V Y i         ",
"        e W W C v m b b n F F G K K L L ....* o @ o a T.E.E.W.E.E.E.E.E.E.R.j o o o O G L K K G G F n n b x z z w V Y Y t       ",
"        e C S B v x b n F F G G K K L L ..z o $ o 3 T.E.E.R.I.Y.T.I.P.Y.E.E.R.j o o o 4 L L K K G F n n b x z c N V R Y u       ",
"        e C B v x x b n n F G G K L L ..L & o o $ I.E.E.Y.T.R.R.R.R.R.R.P.R.R.R.2 o o o F L K G G F n n b x z z N C E Y u       ",
"        e N N c z x b n n F G K K L L ..n o o o l R.E.I.R.R.R.R.R.R.R.R.R.P.R.R.n.o o o 6 L K K G F n n b x z c N T E R i       ",
"      5 e r w c z x b b n F G G K K L ..5 o o o I.R.T.Y.E.E.R.E.R.R.R.R.R.R.Y.T.T.< o o * K K G F F n b b x z c N T E R u       ",
"      X @ $ # O O X O O O O + O + + + + @ o o < R.R.I.E.E.E.E.E.E.E.E.E.R.W.B.T.T.f o o o + + + + O O O X O O # ; , 1 1 ,       ",
"      o o o o . . . . . . . . . . X o . o o o a T.R.P.E.E.E.E.E.E.E.E.E.E.W.P.T.T.k.X o o . . . . . . . . . o o % , 2 < <       ",
"      o o o . . . . . . . . . . . o o . o o o d T.T.P.W.W.W.W.W.W.W.W.W.W.E.P.T.T.l.o o o . o . . . . . . . . o % < 2 2 <       ",
"      o o o o . . . . . . . . . . . . o o o o 3 Y.T.P.E.W.W.W.W.W.W.W.W.W.W.N.Y.I.l . o . o . . . . . . . . o $ > 1 2 2 <       ",
"      d f f g h h k k k k l j.j.j.l.l.k.$ o o % I.Y.I.U.Q.Q.Q.W.W.W.Q.W.Q.T.B.I.I.a o . $ l.j.j.j.l k k k j k l j.k.k.l j       ",
"        x.b.n.M.B.B.P.I.I.U.Y.Y.Y.T.T.T.3 o o . n.U.Y.M.R.Q.Q.Q.Q.Q.Q.Q.W.M.I.I.P.% . o 2 R.Y.Y.I.I.I.P.P.P.B.P.P.P.P.M.v.      ",
"        x.c.n.M.B.P.P.P.I.Y.Y.T.T.T.T.T.k.o o . s I.I.I.M.R.Q.Q.Q.Q.Q.E.n.P.I.P.j.. o o j.T.T.Y.Y.I.I.P.P.P.P.P.I.P.P.M.c.      ",
"        x.v.n.M.B.P.P.I.I.I.Y.Y.T.T.T.T.I.$ o o o c.P.I.U.M.M.U.R.Y.M.b.P.P.P.N.$ o o o U.T.T.Y.Y.Y.I.I.P.P.P.I.I.I.P.M.v.      ",
"        x.c.b.M.B.P.I.I.Y.Y.Y.Y.T.T.T.T.R.h o o . % n.P.I.P.U.P.B.P.P.P.P.P.B.2 . . o f R.T.Y.Y.Y.I.I.I.I.I.I.I.I.I.P.m.v.      ",
"        x.c.b.M.N.P.P.I.I.Y.Y.Y.T.T.T.R.T.U.% o o o % c.P.P.P.B.P.P.P.B.P.m.2 o o o % T.T.T.T.T.Y.I.Y.I.I.I.I.Y.I.I.P.n.        ",
"          c.b.m.M.P.P.I.I.Y.Y.T.T.T.T.R.R.R.m.$ $ $ o $ s n.B.P.P.P.P.m.h % o $ o $ M.R.T.T.T.Y.Y.U.U.I.I.U.Y.Y.Y.I.B.b.        ",
"          x.b.m.B.P.I.I.I.U.Y.Y.T.T.T.R.T.R.R.c.% $ $ % $ % 2 a s a 2 % $ % % $ % v.E.T.R.T.T.Y.Y.U.U.U.U.U.T.Y.Y.P.B.b.        ",
"          x.v.n.M.B.P.I.I.Y.Y.Y.Y.T.T.T.R.R.E.R.M.2 : > > > > > > % > > % : % 2 B.E.R.R.T.T.T.Y.Y.Y.U.U.Y.T.Y.Y.I.P.M.          ",
"            c.b.M.B.P.I.I.Y.Y.Y.T.T.T.T.R.R.R.E.R.T.l 1 < < < < < < < < < 2 k T.R.R.R.T.R.T.T.T.Y.Y.U.Y.Y.T.T.Y.I.P.n.          ",
"            c.v.n.B.P.P.I.U.U.Y.T.T.T.T.R.R.R.E.E.R.E.Y.c.f p 3 2 2 p f c.T.E.R.E.R.R.R.T.T.T.Y.Y.Y.Y.Y.T.T.Y.Y.I.N.M.          ",
"              c.n.M.B.P.I.I.U.Y.T.T.R.R.T.R.E.R.R.E.E.E.E.E.E.T.T.R.E.W.E.E.E.E.E.R.R.R.R.T.T.Y.T.T.T.T.T.T.Y.I.B.M.            ",
"              c.v.M.B.B.P.I.U.T.Y.T.T.T.R.R.R.E.E.E.E.E.E.E.E.E.E.E.E.E.E.E.E.R.R.E.R.R.R.T.T.T.T.T.T.T.T.T.U.P.B.M.            ",
"                c.n.M.B.P.I.U.Y.Y.T.T.T.R.R.E.R.R.E.E.E.E.E.E.E.E.W.E.E.E.E.E.E.E.R.R.R.R.T.T.R.T.T.T.T.T.Y.I.P.M.              ",
"                  b.m.N.P.P.U.U.Y.T.T.R.T.R.R.E.E.E.E.E.E.E.E.W.E.E.W.E.E.E.E.E.E.R.R.R.R.T.T.R.R.R.T.T.Y.Y.P.M.                ",
"                  b.b.m.B.P.P.Y.Y.T.T.T.R.R.R.R.R.E.E.E.W.E.E.E.W.E.E.E.E.E.E.E.R.E.E.R.R.R.R.R.R.R.R.T.Y.I.B.B.                ",
"                    b.b.M.P.P.U.Y.T.T.T.R.R.E.E.E.E.E.E.E.E.W.W.W.E.W.E.E.E.E.E.E.E.R.R.R.R.E.R.R.R.T.T.I.B.B.                  ",
"                      b.n.M.B.P.I.Y.T.T.T.R.R.R.R.E.E.E.W.E.E.E.W.E.E.W.E.E.E.E.E.R.R.E.E.E.R.R.R.T.Y.I.P.B.                    ",
"                        n.m.B.P.P.U.Y.T.T.R.R.E.E.E.E.E.E.E.W.E.E.E.W.E.E.W.E.E.E.E.E.E.E.E.R.R.T.T.U.P.P.                      ",
"                          M.n.M.P.I.Y.T.T.R.R.R.R.E.E.E.W.E.E.W.W.W.W.W.W.E.E.E.E.E.E.E.E.E.R.R.T.U.P.P.                        ",
"                            M.M.N.P.I.I.T.T.T.R.E.E.E.E.E.E.W.W.W.W.W.W.E.W.E.W.E.W.E.E.R.R.T.Y.I.P.P.                          ",
"                              M.M.B.B.I.Y.Y.T.R.R.E.E.E.E.W.E.W.W.W.W.E.W.W.W.E.W.E.E.R.R.T.Y.I.P.                              ",
"                                  M.B.B.P.I.Y.T.T.R.R.E.E.E.E.W.E.W.W.W.E.W.E.E.E.R.R.T.Y.I.I.P.                                ",
"                                      B.B.P.I.Y.T.T.R.R.R.E.E.E.E.E.E.E.E.E.E.E.R.T.Y.Y.I.I.                                    ",
"                                          P.P.P.I.Y.Y.T.T.R.R.R.E.E.R.E.R.R.T.T.Y.Y.I.I.                                        ",
"                                              B.P.P.I.I.Y.Y.Y.T.T.Y.T.Y.Y.Y.I.I.I.P.                                            ",
"                                                      P.P.P.P.I.I.I.I.P.P.I.                                                    ",
"                                                                                                                                ",
"                                                                                                                                ",
"                                                                                                                                "
};
