/* XPM */
static char *f869ccecaaaf4f34c4e184ce3fa9a057NapsKw7vaoFHFtWP[] = {
/* columns rows colors chars-per-pixel */
"64 64 256 2 ",
"   c #351A1A",
".  c #3A261B",
"X  c #3B311C",
"o  c #371926",
"O  c #341B29",
"+  c #392725",
"@  c #3C3527",
"#  c #3A2A34",
"$  c #2F2C2B",
"%  c #461D1A",
"&  c #501E13",
"*  c #56370E",
"=  c #482918",
"-  c #572A19",
";  c #4B361A",
":  c #5B331B",
">  c #5B3B1C",
",  c #573517",
"<  c #51280E",
"1  c #68360D",
"2  c #642C1A",
"3  c #653C1C",
"4  c #673618",
"5  c #76391A",
"6  c #6F3510",
"7  c #491D26",
"8  c #482928",
"9  c #542C23",
"0  c #582B27",
"q  c #493627",
"w  c #5C3324",
"e  c #533B24",
"r  c #5B3C24",
"t  c #5B342B",
"y  c #523C2A",
"u  c #5C3A2B",
"i  c #543428",
"p  c #4B3635",
"a  c #583836",
"s  c #512B36",
"d  c #633523",
"f  c #633C24",
"g  c #6B3C23",
"h  c #68392A",
"j  c #743B28",
"k  c #663A36",
"l  c #733D35",
"z  c #652E26",
"x  c #5B441A",
"c  c #5F400F",
"v  c #6C421B",
"b  c #674719",
"n  c #7D4C14",
"m  c #74431C",
"M  c #7B431B",
"N  c #7B4B1C",
"B  c #764716",
"V  c #7C561A",
"C  c #724B10",
"Z  c #5B4528",
"A  c #594637",
"S  c #504835",
"D  c #644324",
"F  c #6B4323",
"G  c #6C442C",
"H  c #68492A",
"J  c #744424",
"K  c #7B4424",
"L  c #744C24",
"P  c #74442D",
"I  c #744C2B",
"U  c #7C4C2B",
"Y  c #7B4927",
"T  c #7B5325",
"R  c #7C532C",
"E  c #775729",
"W  c #6C4333",
"Q  c #684837",
"!  c #744433",
"~  c #7C4B33",
"^  c #774839",
"/  c #6B5437",
"(  c #795637",
")  c #66522D",
"_  c #796033",
"`  c #583747",
"'  c #473443",
"]  c #6D3D40",
"[  c #544845",
"{  c #664944",
"}  c #794942",
"|  c #785542",
" . c #675344",
".. c #7E6244",
"X. c #843E27",
"o. c #803B14",
"O. c #86480E",
"+. c #844A1B",
"@. c #874818",
"#. c #944D16",
"$. c #84531C",
"%. c #8C541B",
"&. c #845B1D",
"*. c #895817",
"=. c #935C1C",
"-. c #97581B",
";. c #8A570E",
":. c #8A641A",
">. c #97661C",
",. c #99731D",
"<. c #A3671C",
"1. c #AA781A",
"2. c #834423",
"3. c #834C24",
"4. c #844B2B",
"5. c #894929",
"6. c #924A27",
"7. c #855323",
"8. c #8C5B24",
"9. c #83542C",
"0. c #8B542B",
"q. c #8B5B2C",
"w. c #875927",
"e. c #935323",
"r. c #9B5425",
"t. c #925B24",
"y. c #9A5C25",
"u. c #94552C",
"i. c #935B2B",
"p. c #9B5C2B",
"a. c #9B552D",
"s. c #834A33",
"d. c #874A37",
"f. c #914E34",
"g. c #845334",
"h. c #8C5432",
"j. c #845C34",
"k. c #885839",
"l. c #935434",
"z. c #935C33",
"x. c #985939",
"c. c #A45C26",
"v. c #A45E38",
"b. c #8B6528",
"n. c #9B6423",
"m. c #94632B",
"M. c #9B642C",
"N. c #9C6A2B",
"B. c #956926",
"V. c #9B7428",
"C. c #886537",
"Z. c #936332",
"A. c #9C6334",
"S. c #946B33",
"D. c #9C6B34",
"F. c #9B633C",
"G. c #96683B",
"H. c #9A7435",
"J. c #8E7032",
"K. c #A26C24",
"L. c #A36B2C",
"P. c #A86629",
"I. c #B26A2A",
"U. c #A5732C",
"Y. c #A77728",
"T. c #B4772C",
"R. c #A46334",
"E. c #A36C34",
"W. c #A86938",
"Q. c #B36D37",
"!. c #A47333",
"~. c #AC7A33",
"^. c #A5733B",
"/. c #AC7C3B",
"(. c #A97638",
"). c #B37C32",
"_. c #B77839",
"`. c #A15D1D",
"'. c #C37E3A",
"]. c #865543",
"[. c #955A42",
"{. c #844C41",
"}. c #8B6344",
"|. c #986743",
" X c #9C7542",
".X c #B26943",
"XX c #AB7943",
"oX c #B77944",
"OX c #A46742",
"+X c #A25C45",
"@X c #C47E4A",
"#X c #A7852C",
"$X c #B7842C",
"%X c #AD8333",
"&X c #AA853A",
"*X c #BC833C",
"=X c #B78738",
"-X c #B8963B",
";X c #C5883A",
":X c #C5953B",
">X c #AD8745",
",X c #B38243",
"<X c #B98847",
"1X c #B99647",
"2X c #BC9753",
"3X c #B68C4E",
"4X c #BCA445",
"5X c #BDA751",
"6X c #C68A46",
"7X c #C39B4C",
"8X c #C99646",
"9X c #D49A4A",
"0X c #C89A55",
"qX c #D39A56",
"wX c #CC8E52",
"eX c #C6A649",
"rX c #D3A84B",
"tX c #C8A757",
"yX c #D5AC5B",
"uX c #D8A757",
"iX c #CAB359",
"pX c #D9B759",
"aX c #CFB44C",
"sX c #E1B45B",
"dX c #D7AA63",
"fX c #CCB865",
"gX c #D8B666",
"hX c #D4B16D",
"jX c #E6BA66",
"kX c #E5B16F",
"lX c #D09E64",
"zX c #D7C45A",
"xX c #E4C75C",
"cX c #DAC669",
"vX c #DAD368",
"bX c #D9C473",
"nX c #DCD277",
"mX c #E6C66A",
"MX c #E7D56B",
"NX c #E7C676",
"BX c #F5CB77",
"VX c #E8D676",
"CX c #F8D879",
"ZX c #F3CB6C",
"AX c #F9E57C",
"SX c #EAE375",
"DX c #E9D882",
"FX c #F9DA85",
"GX c #F1D189",
"HX c #F9E689",
"JX c #FCF88A",
"KX c #FDE894",
"LX c #FDF698",
"PX c #ECEA88",
"IX c #FFFCA3",
"UX c #DFDF81",
/* pixels */
"%.+.t.I w z 1 w ^ p a A y P.uXsXY.D.@.}.g.f Q W k.m.=XtXH.H.aX0XH.n.1 2 ) 0 3 5.g Q.zXeXe.! q ` q 7 7XFXIXHXnX8X:XyXXX/.L.^.N.z.",
"z.D.A.j.z ; y k Q a A 9 l <XcXT.%.0.V b.P.#.:.9.7.oXO.V n.B.oXI.8X8X7.g H 8   = i H &XL.4.U u a O 8 mXAXPXVXlX%X4XmXuXtX!.;Xh.g.",
"B t.m.F.9.~ : S s 8 = 8 q.<XpX).5 l 0.W.~.>XE.^ L -.T.>X-XeX!.r._./.a.H a Z z k 8 l > 6 ~ 1 h A o 9 CXFXVXiX,XE.;X8XqXtXoXz.T Y ",
"s.I 5 R.4 r 4 Q   # 8 f ~.aX1XC.- ( 2.P.z.W.c P C 8._.FXDXjX&X`.F.p.Y L R.6XrXwX-.( A 4 p.I.Z.S   Q.vXbXVXe.~ p.B =.c.oXD.7.S.E ",
"&.: s.3.b h Z a o $ i v.kXpXI.! Q j.^.6.m L = F C.j.V.CXAXGX6XY.E.a.^.0XyXeX7XaXE.b.v l [.,Xi.k = 1XmXZXjXV K e.#.V Q.%.oX-.[.u.",
"e.b.j h ~ - z i # p h.yXkXjXO./ : K s.G i.j ; h 3.B m.NXHXFXgX%XXXO.%XeX1X:XrXoXG.j.f.W ~ q.E Z L cXVXVX2Xh.#.c.).6XoX3X0X<X8.!.",
"z h E g.8 H H ; ` 8 7X,XdX_.Z.! F ( ( 3.U {.~ % a h.&XFXFXmXcXdXV.:.N.#XqX0XfX).@./ B.V.Q f ( 5 @.gXSXgX_.&.&.c.6X!.N.%XU.n q G ",
"g G -.zXh.s @ S $ R qXY.OX XF B 9.b b ! h : U G Z ( !.uXiXnXCXAX6XXX#.L.wXqX0XP.L g %XhX8.! F b @.;X&Xp.G.v d.q.=.D.t., % y . 8 ",
"h 6.yXZXmX<Xq S R }.l.x.h Y g.F.~ H 4.! d P ) , a q ( Y o.f.9XjXoXc.e.m.^.Q.*.v +.@.K.XXw.b m 1 r.f.H.oXv.9.E 5 C.L - h @ # q p ",
"-.cXcXjXfX=XXXb.NX;.e t 1 C..XM.6 h.E u t 8 o p   { m K K ! Z.* 2 C.+XT 5.m &.b.N.|.*.L 5 l.b ^ 0.0.i.:.@.U j.Z.D - k a ' p @ Z ",
"gXFXgXpX8X3.b.V.DXAXE.y G C.R.i.b.9.f e 8 + $ $ p 8 2.J 4 ].F , 4 u ! I.I.8.6X8.&.F.j.y - 9 / t > g.6 k.R h.J d.2.~ = s . @ p q.",
"PXCXkX;XH.].( OXAXHXNXj.+ L x.R.p.) e r p p p ' + ~ =.M F | 2 i t w.R.,.V.6X;XY.S.A k / H Q , 5 w.=X,.E.5.D D b Y D ; p k } e.HX",
"MX-XK.0.^ e 0 :XAXDXmXN.8 Q Q > g * 2 W Q X   $ = XXqX0XL.}.j.1 < V O.n.&X*X:.H ; { f G U a 3.aXVXfX=X%XW.A.F.2.r W b 3 =XuXHXPX",
"eXV.$.3 # t Q 0XLXaXu.-.Y 3 y - r w 9 u 9 # S + a.jXtXtXH.-.1 m b C j./.7XS.( [ q W b ; D *.VXHXMXiX-XQ.b.E.%XQ.F Y B iXDXKXGXjX",
"x.].d.~ 1 } D NX:X0XM L.i.x.F 0 - H h y r p ; / .XpXxXzXqXwX5 8.5 l.H.*.T.>XL # p . 0 I e.GXAXHXFXCXtX-.I.rX>X#.[.E n.8X0XdX-.k.",
"m q.^.R.^.^ / T.oX&Xb.V e.#.( s 8 / x.R F X.V *.Z.dXjXtX;X0X!.n.g.m .XXXn -.6 A ` p [ e.Y.kXmXKXDXFX$XoXI.;XC f r h -.8.n.Z.2.^ ",
"_.Q.7X6XB.L / I D.oXh.x.S.&.9 9 D ].#X<XtXfXVXmX%.q.gX;XF.>.L.OXG.Z.^.V.;XT.}.H ( Z ; 0.c.&XwX-XqX*Xh.$.M. X, , y / 4.@.b.u.z.q.",
"B._.%XeXXXN &.Q k.u.j R B.F p s A 9.iX,X,XNXFXmX/.+.Z.$.K B.z.#.J c.b 8.5.r.0 k.L.w.x.w n %X6.Q.n.$.y.n ^.5.g.g.q w d m W.N.q.! ",
"m.p.>.9X$X9.I k : r z j ~ J > o Z eXFXhXY.yXKXGXL.P.8.r %.N.v.^.Z.:.L j 4 a r - C E.S.q.4 !.E._.j.d.-.e.8XU.3.@.+.F / q.h..Xb.|.",
"3.7.+.$X,.* } { D H B : g.m ( w | CXKXjX9XhXLXlX%X8XuXb 5 2.@.9.&.^ J 3 g W G a . k.i.q.F N.<.3XR.G $.%X7XsXW.F s.5 2 G ^.T.oXM.",
"&.L.i.tX).3 k o = 9.s -  .t 5 j *XSXVXMX:XcXKX,X^.pXcXuX_.9.b b.b C.d.u ! U Q y 8 S ; h 4 e.N.y.J B b.).1XY.V 4.l ( 1 L -.6XB.R ",
" Xt.6XuX%.a S # W.HXfX4XR.H h * 1XJXAXKXZXmXFX6X1X1XgX1X-X5 > v C.R ) 9.9 G , A s 9 A z ; @.;.6.d ( 3.%.&.5 ~ u D U.m m.Z.9XB.W.",
"T.qXyXY.`   # t GXLXVXgXVXoXd z 7XVXgXCXMX0X%Xn.8XcXpX-.C.0 f v.k.Z h Z 8 } ^ s u @ { , A s.5.( x h | 1 4 J Z y S G R m.;XcXiXoX",
"H.7XtX) ` ` p yXLXIXSXyXeX9.R R (.=XQ.H.:XP.O.g D.Q._.t.t j.=.L.e.=.3.!.C y.D 0XjX=X+.D h 5 t.; - 4 ) P ^ B T p y 0 +._.gXtXuXV.",
"XXH.h # $ ` *.LXLXHXjX,XL.M Z 3 j.N.^.#.K.a.S.N b.a.Q.b.4 %.tXY.k.D.tXHXjX<XY kXLXCXZX0X;X~ k G Q 3 | j.j b f y s Z } 6XlXDX-XL ",
"- ] a $ 7 9 mXIXJXKX<XXXD.D./ A 0 1.@X8.!.D.a.E @.oXz.s.2 ,.hXgXL. XFXJXkXk.f !.KXJXnXtX<X^ a Q 3 Z ( R ].D = ) q.8XO.m Y.Q.C.W ",
"R 9 = s t T.gXmXeX3Xw.e._.t., s = M ).7X3Xi.d.:.(.1XN.|.b.1X;XgX8X7.pXKX&XJ Z N ZXLXvXdXB.( 0 k t : I u y Q C 3XVXPX;X,X0.; { k ",
"g h q [ ].*X%.m.%.3.;.V.2X(.j + . 9.2X0X_.S.9.X.=X!.9.H.B._._.3XI.5 >.mX,X~ H C jXVXZXuX6.b Q k Z e > w 8 R.tXCXFXFX%X3X-.k u 3 ",
"K g.b p A.V.z.n ,.>X.X&XoXgXv S + 3 ;X6XwX/.=.H I j s.N.B.N.3.@.+.h D.iXP.i.L u.tXmXsXwX!.G I u.P g.t l m.0XgXtXCX4X-XF.x.^ ( K ",
"fXNX%XP , q.8.B.=XL.K.m.=XpXh s + k yXhXBXyXr.} L v.V O.B.D.T _ } ; J <X_.8.a.5 _.gXmX_.>.g.4.P.3X,X@.- j.>XiXaXNX8Xx.2 m &.yXBX",
"VXjXtXj.> L B.K.1.~.oXH.-.*.8 8 ; > jXjXgXnXk.j.l.8.XXD.:.U W q w { XXdXD.J.K H J.dXdXqX-.i.b.H.6X#XB.d.b =XGXNXxX6X0.OXL.NXKXJX",
"FXqXH.*.l D >.oXT.*XC.P L 2 X S o e.FXuXmXkXl.E ~ =.#.*.&XV G q q Q *XE.3.4.C 2 V.=X7X/.*.).Q.1.1XW.Z.~ A %XdXpX<X_.oXB.eXVXPXKX",
"ZX4XB.R.G.d b.6X=Xh.E l ) 8 a $ p %XcXdXFX7XB j v.h.S.N.1X-.} A D / K.R.W.T.c.$.yX8X-X&XV 8.A.a.e.N B J a n.rXoXB.+.U L.8XuXrXMX",
"gXrX4.D ~ D > A.G l j r 9 k S p { pXMXMXVX).0.K }.#.L.oX%XP.d a Q h $XBXxXCXHXbXvXBX8Xb.t.3 5.S.D.b i = ; J.I.@X;X_.G.m.1XeXtXiX",
";Xh.Z . < r k.q = Z._.g.y w ; . W tXbXfXpXyXY T t.8.;XwXN.>.1 j ] {.tXjXZXFXNXFXDXHX=X<X@.R.e.-.%./ j f > Q <XV.P.!.n.L.jXmXfXvX",
"6.i q w 0 t 3 5 qX%X-.#.*.S.9Xh.& 8X1X-XpXpXb.E T Q.&X6X).F W f l u.CXsXGXmXCXvXNXMX<Xk.n Z.K.<X<Xi.m J 5 A E G.7.C.k.*.6XcXrXgX",
"D.h p h = ) P.CXNX<.B.6X5XaXjXe.P P.oX>.N.Y.V ( l.8.p.P.H.k 0  .9 b.hXVXjXlXGXCXFXcXK.b.b B.=X_.S.u.6 2.S.5 u +.D 3 t b.=.<X0XqX",
"Y p A q = T.HXvXuXb.c.1XdXtXY.V Y j.y.Q.R.~.R.* ; 5 b U n - $ A 8 s.NXUXCXmX<X=X-X(.L ( f.(.9X:X:.c.q.b.D.K f p = q &.*.@.Q.-XS.",
"C.s   q =XLXFXLXeX).&XqXeXtXB.E.|.d.l.S.t.%.O.0 | N E 4.8.| o ' = s :XDXMX-X<X%X8XL.}.C R V.<X_.u..XG.3.M I k s G a [.+.N.b.OX*X",
"0.Z.[ j.AXPXVXFX;XE.B.#XD.T.-.$.v.v.n 4.n 8.Z./ w Y l.B $.n { k p 0 %XjXE.E.m.t.U.D.m.$.y.t.E.v.n J m j.1 F | k d L u.D.+.|.f.<X",
"r R 4 V.CXVXBXgX&X,X_.P.D.8.&Xu.V ~.y.%.h E (.k.x e.j.C.L ^ y a { H Z.P.5 B &.$.Y.y.!.t.n.t.E ~ R d ~ % Q v j.A 3 w.;.0.[.+.l.6 ",
"W  .- wXDXMXGXdXV.c.$.%.H.n f.q.:.m.Y.oXw., s.( c M F 4 ^ D W A ~ I.J.q.B k.N.=XL.U.#X%X/.x.a Q L 4 Q 8 / / - l l C.E i.j }.5.W ",
"l i Q ~.HXnX9X0X3XZ.L %.M.q.d.( d.c.L.b./.I / w.dX:X;Xy.B.x.t {.tXVX6XW.N.U :.6X).;X-XD.V.C.p ; 4.t f W = Q u Y p.F F T v ^.[.q ",
"/ ) L.fXcXiX,X;XQ.q.*.0.^ L R R 7.q.-.T.E.O.m (.PXNXgX:XpX1XN n.jXvXuX)._.@X;.!.lX;X-X!.-.K   ' r h.G W M..X_.T.=Xe.O.4 H k.= = ",
"-.pXpX;XuXY.E.:.R.q.L j.0.! Z X 3 M j.M Q.E.5 U.DXFXFXrX&X8X<Xa.E Y.9XZXtXU.R.D.*.3X!.M.E 5 = h W.3X>XtXaX8XyX0X;XXX~.l.z Q Z } ",
"KXcX5XY.#.9.F.N.A.@.3.h.k.! + e } h I [.m b N !.JXZXrX6XuXtX6X@.L I h.L.pXiXK.M.F.j.i.&.E. XC.1XGX0X7X8XyX8Xi.N.r.%.4 }.d X.W.MX",
"JXCXdX3.W.oXn.H.E.i.3.~ }.Q . 8 2 H y 3 k 5 /.kXmX3Xm.i.B.&X;.3.n e.^ C.!.=XT.(.7.+.^ U w.6XhXvXCXfX:X,X>.L.D.oXH.M W / * +.NXCX",
"JXcXT.%X#X*X$.Y.2.R.&.0.x.h.(  .z ) Q > Q W =XAXGXrXZ.z.P.M s.b.x.Y.h.d.L.d.c.G.G 0._ k %X4XAXFXmXL.K c.H.XX$XoXK.G.i i ; s.gXDX",
"HXtX>.rXaX0XS.D.$.A.Z.N f.n.V - y ; ] ; A w.uXiX7XpXp.2._.q.n.n U.p.t.K N u.*X*.W 0 j m.t.w.S.Y.gXQ.3.e.E.*XoXb.S.G ; p 8 &.=XFX",
"fXE.N.S.W.Q.9.l.6.q.C.q.K T %.Y H : s . t R.0X1XK.Y.C.|.@.<.8XJ j.e.a.F.Z.n.7Xc.% q 1X7XB.|.J.R.<XU.K 9.K R N w 9 7 % w . t.JXHX",
"n.w P w j.I.R.^ ! B Y d.Z.1 6 g.k e k = a $.3.8.f.N L G.%.N.wXl., Q : ^ ~.lXyXD.q O.AXyX#X!.V.M.p.n 3 h.4.S.C.F.P.E.N.6 R.mXLXZX",
"5 h - - Y /.6XK.| 9 r Z y g.: I w  .- Q | P g.C.m.G.|.q.v.<.f.{ { 9 w F yXtXyX( Q nXAXCXyX~.<.Z.f g.(.uXMXnXLXGXmXcXaXmXAXJXDX8X",
"! D G R <X;XY.=X*XM.#.D G ! H k - < 2.$.m }  .X.M.P.;.x.( V.5  .t l t P tXmXL./ e.LXhXmX_.%.5 X.) 5 7XjXCXJXKXhXFXhXyXsXbXzXdXR.",
"P A j i.pXsX^.:XH.J.XX&XA.e.4 W %.U.0XY.OX5 R 5.T =X_.H.f.V } < . & y p tXjXT H DXKXCXiX8.O.N ! A - !.;XgXFXmXgX;X_.-XuXjXeXv.D.",
"F.I F M.VX0XY.0X,X0.V.=Xn.Q.m.: &XbXfX,XE._ u Q &.!.O.$.2.K H Q a ` a ; -X$X; Y.FXDXtX!.S.9.+X4 h * F.,X).tXM.O.e.B.6X:XrX~.=.3.",
"P.F.$.aXVXNX6X<XI.x.h.W.E.n.t...n.gXHXtX^.j.( Q w b.8.n.g z t [ ' p . - c.e.Z #XPXsX_.N l.P.!.OXd f s.6XB.<X:.>.#.(.8X8X&X-.m.B.",
"W.<XfXMXyXcXeX<XI.0.3 H g [.R l $.iXGXY.Z.1 D / ] A b C.3 | p & t 8 a . - y a @.Q.oXe.T M.$X~.r.X.^ j =X=X_.>.y.a.y.1X7XA.E v u.",
"<XSXKXHXJXmX<Xn.+.g.v ~ } h ~ k V.4XjXv.|.0.s.G | p i B.5XU.p.P.m.m.h.0.P.oXi.2 u.L.oXL._.0X6X=X[.L g.n./.6.|.8.j H x.p.8.9.U J ",
"mXDXJXHXBX;XI.X.V.h , y A s q , 2.0X@XE.i.g.m 3.* A B.PXLXyX!.(.>.=X%X%XiXHXwX0.-X0X>X=.0X:X_.,._ H.F.b.T x L =.f.` A R x.| k O.",
"eXiXuX%X-.i.z.Y 0.t p y o . p 8 4.#.U.6.g.H S , ^ 3 >XKXJXCX'.B.I.w.=X8XgXZXwX( Y.iXuXW.).gXkX>X/ ! F |.| B m g.x.G Z W.!.C.h  X",
"dXfX$Xw.D.O.a.7.n 0 ; Z % O ` . ( OX:.0.q 9 Z ) k #.yXJXGXeX-X:.e.u.=XrX,.%Xy.j W.cX8X-X-X9X8X4.s Q F b e.M L h i.m Z m.-Xm.5./.",
"1XQ.8Xy.U.q.|.].2.} D w A : _.e.v f H P d W D F u 2XzXmXVX1X/.N N v.1.3.+.*. XR e.aXhX-XdXeXt.- [ q y ,XHXVXiX_.b.V t w.*X3XC.XX",
"a.Z.@.G.x.K D 5 0 k.Q P = g ZXmX).1 q p } Q Z ~ ;.PXiXyXkX$X_.:.@.w.K B Z.Z.3.V &.uXyXuX9XN.D [ q a m CXCXAXVXcX(.M.N q.<.:XC.-.",
"B.b.L L k.9.Y h } l ; Z 8 F cXjX1X=Xw.h y a i ^ e.#XZXyX&X8X3XrX_.n.4.< D j.A.i.N.aXiXjX%XJ.8 O a y $XFXJXVXgX7XuX=XK._.S.~.C 4."
};
