/* XPM */
static char *cc581861c67e4f95adde495d645b808dFoko37e40Rpw4kZt[] = {
/* columns rows colors chars-per-pixel */
"64 64 4 1 ",
"  c #058006",
". c #0DAD0F",
"X c #16CE18",
"o c #21F522",
/* pixels */
"o.X .o.X. .o.X. .o.X. .o.X. .o.X. .o.X. .o.X. .o.X. .o.X. .o.X. ",
" .o.X. .o.X. . .o.X. .o.X. .o.X. .o.X. .o.X. .o.X. .o.X. .o.X. .",
"o.X. .o.X.  X. .o.X. .o.X. .o.X.X. .o.X. .o.X. .o.X. .oo.X. .o.X",
".X. .o.X. .o.X. .o.X. .o.X. .o.X. .o.X. .o.X. .o.X. .o.X. .o.X. ",
"X. .o.X. .o.X. .o.X. X. .o.X. .o.X. .o.X. .oX. .o.X. .o.X. .o.X.",
" .o.X. .o.X. .o.X. .o.X. .o.X. .o.X. .o.X. .o.X. .o.X. .o.X. .o.",
"o.X. .o.X. .o.X. .o.X. .o.X .o.X. .o.X. .o.X. .o.X. .o.X. .o.X. ",
".X. .o.X. .o.X. .o.X. .o.X. .o.X. .o.X. ..X. .o.X. .o.X. .o.X. .",
" .o.X. .o.X. .o.X. .o.X .o.X. .o.X. .o.X. .o.X. .o.X. .o.X. .o.X",
"o.X. .o.X. .o.X. .o.X. .o.X. X. .o.X. .o.X. .o.X. .o.X. .o.X. .o",
" .o.X. .o.X. .o.X. o.X. .o.X. .o.X. .o.X. .XX. .o.X. .o.X. .o.X.",
"X. .o.X. .o.X. .o.X. .o.X. .X. .o.X. .o.X. .o.X. .o.X. .o.X. .o.",
".X. .o.X. .o.X. .o.X. .o.X. .o.X. .o.X. .o.X. .o.X. .o.X. .o.o.X",
" .o.X. .o.X. .o.X. .o.XX. .o.X. .o.X. .o.X. .o.X. .o.X. .o.X. .o",
".o.X. .o.X. .o.X. .o.X. .o.X. .o.X. .X. .o.X. .o.X. .o.X. .o.X. ",
"o.X. .o.X. .o.X. .o.X. .o.X. .o.X. .o.X. .o.X. .o.X. .o.X. .o.X.",
" .o.X. .o.X. .o.X. .o.X. .o.X. .o.X. .o.X. X. .o.X. .o.X. .o.X. ",
".o.X. .o.X. .o.X. .o.X. .o.X. .o.X. .o.X. .oX. .o.X. .o.X. .o.X.",
"X. .o.X. .o.X. .o.X. .o.X. .o.X. .o.X. o.X. .o.X. .o.X. .o.X. .o",
" .o.X. .o.X. .o.X. .o.X. .o.X. .o.X. .o.X. .o.X. .o.X. .o.X. .o.",
". .o.X. .o.X. .o.X. .o.X. .o.X. . .o.X. .o.X. .o.X. .o.X. .o.X. ",
" .o.X. .o.X. .o.X. .o.X. .X. .o.X. .o.X. .o.X. .o.X. .o.X. .o.X.",
"X. .o.X. .o.X. .o.X. .o.X. .o.X. .o.X. .o.X. .o.X. .o.X. .o.X. .",
"o.X. .o.X. .o.X. .o.X. X. .o.X. X. .o.X. .o.X. .o.X. .o.X. .o.X.",
" .o.X. .o.X. .o.X. .o.X. .o.X.X. .o.X. .o.X. .o.X. .o.X. .o.X. .",
".o.X. .o.X. .o.X. .o.X. .X. .o.X. .o.X. .o.X. .o.X. .o.X. .o.X. ",
". .o.X. .o.X. .o.X. .o.XX. .o.X. .o.X. .o.X. .o.X. .o.X. .o.X. .",
" .o.X. .o.X. .o.X. .o.X. .o.X. .o.X. X. .o.X. .o.X. .o.X. .o.X. ",
"X. .o.X. .o.X. .o.X. .o.X. .o.X. o.X. .o.X. .o.X.  .o.X. .o.X. .",
".o.X. .o.X. .o.X. .o.X.X. .o.X. .o.X. .o.X. .o.X. .o.X. .o.X. .o",
" .o.X. .o.X. .o.X. .o.X. .o.X. .o.X. X. .o.X. .o.X. .o.X. .o.X. ",
"o.X. .o.X. .o.X. .o.X. .o.X. .o.X. .o.X. X. .o.X. .o.X. .o.X. .o",
". .o.X. .o.X. .o.X. .oX. .o.X. .o.X. .o.X. .o.X. .o.X. .o.X. .o.",
".o.X. .o.X. .o.X. .o.X. .X. .o.X. .o.X. .o.X. .o.X. .o.X. .o.X. ",
". ..X. .o.X. .o.X. .o.X. .o.X. .o.X. .o.X. .o.X. .o.X. .o.X. .o.",
"o.X. .o.X .o.X. .o.X. .o.X. .o.X. .o.X. .o.X. .o.X. .o.X. .o.X. ",
".o.X. .o.X. .o.X. .o.X. .o.X. .o.X. .o.X. .o.X. .o.X. X. .o.X. .",
"X. .o.X. .o.X. .o.X. .oX. .o.X. .o.X. .o.X. .o.X. .o.X. .o.X. .o",
" .o.X. .o.X. .o.X. .o.X. .o.X. .o.X. .o.X. .o.X. .o.X. .o.X. .o.",
".X. .o.X. .o.X. .o.X. .o.X. .o.X. .o.X. .o.X. .o.X. .o.X. o.X. .",
". .o.X. .o.X. .o.X. .o.X. .o.X. .o.X. .o.X. .X. .o.X. .o.X. .o.X",
"o.X. .o.X. .o.X. .o.X.X. .o.X. .o.X. .o.X. .o.X. .o.X. .o.X. .o.",
"X. .o.X. .o.X. .o.X. .o.X. .o.X. .o.X. .o.X. .o.X. .o.X. .o.X. .",
"o.X. .o.X. .o.X. .o.X. .o.X. .o.X. .o.X. .o.X. .o.X. .o.X. .o.X.",
" .o.X. .o.X. .o.X. .o.XX. .o.X. .o.X. .o.X. .o.X. .o.X. .o.X. .o",
".X. .o.X. .o.X. .o.X. .o.X. .o.X. .o.X. .o.X. .o.X. .o.X. o.X. .",
".o.X. .o.X. .o.X. .o.X.X. .o.X. .o.X. .o.X. .o.X. .o.X. .o.X. .o",
"o.X. .o.X. .o.X. .o.X. .o.X. .o.X. .o.X. .o.X. .o.X. .o.X. o.X. ",
" .o.X. .o.X. .o.X. .o.X. .o.X. .o.X. .o.X. .o.X. .o.X. .o.X. .o.",
".o.X. .o.X. .o.X. .o.X. .o.X. .oX. .o.X. .o.X. .o.X. .o.X. .o.X.",
"X. .o.X. .o.X. .o.X. .o.X. .o.X. .o.X. .o.X. .o.X. .o.X. .o.X. .",
"o.X. .o.X. .o.X. .o.X. .o.X. .oX. .o.X. .o.X. .o.X. .o.X. .o.X. ",
".o.X. .o.X. .o.X. .o.X. .o.X. .o.X. .o.X. o.X. .o.X. .o.X. .o.X.",
" .o.X. .o.X. .o.X. .o.X. .o.X. .o.X. .o.X. .o.X. .o.X. X. .o.X. ",
"o.X. .o.X. .o.X. .o.X. .o.X. .o.X. .o.X. .o.X. .o.X. .o.X. .o.X.",
".X. .o.X. .o.X. .o.X. .o.X. .o.X. .o.X. .o.X. .o.X. .o.X. . .o.X",
"X. .o.X. .o.X. .o.X. .oX. .o.X. .o.X. .o.X. .o.X. .o.X. .o.X. .o",
"o.X. .o.X. .o.X. .o.X. .o.X. .o.X. .o.X. .o.X. .o.X. .o.X. .o.X.",
" .o.X. .o.X. .o.X. .o.X. X. .o.X. .o.X. .o.X. .o.X. .o.X. .o.X. ",
"o.X. .o.X. .o.X. .o.XX. .o.X. .o.X. .o.X. .o.X. .o.X. .o.X. .o.X",
". .o.X. .o.X. .o.X. .o.X. .o.X. .o.X. .o.X. .o.X. .o.X. .o.X. .o",
".X. .o.X. .o.X. .o.X. .o.X. X. .o.X. .o.X. .o.X. .o.X. .o.X. .o.",
"X. .o.X. .o.X. .o.X. .o.X. .o.X. .o.X. .o.X. . .o.X. .o.X. .o.X.",
" .o.X. .o.X. .o.X. X. .o.X. .o.X. .o.X. .o.X. .o.X. .o.X. .o.X. "
};
